<svg width="342" height="335" viewBox="0 0 342 335" fill="none" xmlns="http://www.w3.org/2000/svg">
<path d="M158.092 331.53L158.049 331.495L158.011 331.455L156.7 330.108C155.61 328.987 155 327.486 155 325.923V296V295H156H186H187V296V326.424C187 328.03 186.357 329.568 185.214 330.695L184.43 331.469L184.397 331.501L184.362 331.53L181.635 333.772L181.358 334H181H161.455H161.096L160.819 333.772L158.092 331.53Z" fill="#F5F5F5" stroke="black" stroke-width="2"/>
<path d="M159.092 3.47L159.049 3.50527L159.011 3.54507L157.7 4.89239C156.61 6.01251 156 7.51368 156 9.07652V39V40H157H187H188V39V8.5756C188 6.97034 187.357 5.43203 186.214 4.30458L185.43 3.53059L185.397 3.49877L185.362 3.47L182.635 1.22757L182.358 1H182H162.455H162.096L161.819 1.22757L159.092 3.47Z" fill="#F5F5F5" stroke="black" stroke-width="2"/>
<path d="M338.53 180.908L338.495 180.951L338.455 180.989L337.108 182.3C335.987 183.39 334.486 184 332.923 184H303H302V183V153V152H303H333.424C335.03 152 336.568 152.643 337.695 153.786L338.469 154.57L338.501 154.603L338.53 154.638L340.772 157.365L341 157.642V158V177.545V177.904L340.772 178.181L338.53 180.908Z" fill="#F5F5F5" stroke="black" stroke-width="2"/>
<path d="M3.47 180.908L3.50527 180.951L3.54507 180.989L4.89239 182.3C6.01251 183.39 7.51368 184 9.07652 184H39H40V183V153V152H39H8.5756C6.97034 152 5.43203 152.643 4.30458 153.786L3.53059 154.57L3.49877 154.603L3.47 154.638L1.22757 157.365L1 157.642V158V177.545V177.904L1.22757 178.181L3.47 180.908Z" fill="#F5F5F5" stroke="black" stroke-width="2"/>
<path d="M302.5 168C302.5 241.167 242.741 300.5 169 300.5C95.2595 300.5 35.5 241.167 35.5 168C35.5 94.8328 95.2595 35.5 169 35.5C242.741 35.5 302.5 94.8328 302.5 168Z" fill="#F5F5F5" stroke="black" stroke-width="3" stroke-dasharray="6 6"/>
</svg>
