<svg width="73" height="199" viewBox="0 0 73 199" fill="none" xmlns="http://www.w3.org/2000/svg">
<path d="M50.9719 1.34219L52.1514 0.897611L52.1548 0.906616L52.1607 0.922344L52.1667 0.938275L52.1728 0.95437L52.1789 0.970628L52.1851 0.987049L52.1914 1.00367L52.1977 1.02046L52.2041 1.03737L52.2106 1.05448L52.2171 1.07176L52.2236 1.0892L52.2303 1.1068L52.237 1.12457L52.2437 1.14249L52.2505 1.16054L52.2574 1.1788L52.2644 1.19722L52.2713 1.21575L52.2784 1.2345L52.2855 1.25336L52.2927 1.27239L52.2999 1.29158L52.3072 1.3109L52.3146 1.33037L52.322 1.35001L52.3294 1.36982L52.3369 1.38978L52.3445 1.40987L52.3521 1.43008L52.3598 1.45045L52.3676 1.47099L52.3754 1.49169L52.3832 1.51247L52.3911 1.53345L52.3991 1.55456L52.4071 1.57579L52.4151 1.59718L52.4232 1.61869L52.4314 1.64037L52.4396 1.66217L52.4479 1.68409L52.4562 1.70617L52.4646 1.72838L52.473 1.75071L52.4815 1.77316L52.49 1.79577L52.4986 1.81851L52.5072 1.84137L52.5158 1.86435L52.5246 1.88749L52.5333 1.91072L52.5421 1.93411L52.551 1.95762L52.5599 1.98121L52.5689 2.00496L52.5779 2.02884L52.5869 2.05284L52.596 2.07692L52.6051 2.10116L52.6143 2.12553L52.6235 2.14998L52.6328 2.17459L52.6421 2.19928L52.6515 2.22409L52.6608 2.24899L52.6703 2.27405L52.6798 2.29919L52.6893 2.32445L52.6989 2.34984L52.7085 2.37534L52.7181 2.40093L52.7278 2.4266L52.7375 2.45243L52.7473 2.47835L52.7571 2.50434L52.7669 2.53046L52.7768 2.5567L52.7868 2.58302L52.7967 2.60947L52.8067 2.63599L52.8168 2.6626L52.8268 2.68933L52.8369 2.71614L52.8471 2.74307L52.8573 2.77009L52.8675 2.79719L52.8777 2.82436L52.888 2.85166L52.8984 2.87904L52.9087 2.90655L52.9191 2.93409L52.9295 2.96176L52.94 2.98947L52.9505 3.01729L52.961 3.04525L52.9716 3.07324L52.9821 3.10131L52.9928 3.12947L53.0034 3.15771L53.0141 3.18606L53.0248 3.21446L53.0355 3.24295L53.0463 3.27151L53.0571 3.30015L53.0679 3.32888L53.0788 3.35769L53.0897 3.38653L53.1006 3.4155L53.1115 3.44452L53.1225 3.47361L53.1335 3.50278L53.1445 3.532L53.1555 3.56129L53.1666 3.59067L53.1777 3.62013L53.1888 3.64963L53.2 3.67917L53.2112 3.70883L53.2223 3.7385L53.2336 3.76828L53.2448 3.79811L53.2561 3.82798L53.2674 3.85792L53.2787 3.88791L53.29 3.91798L53.3013 3.94809L53.3127 3.97825L53.3241 4.00848L53.3355 4.03875L53.347 4.06911L53.3584 4.09946L53.3699 4.1299L53.3814 4.16042L53.3929 4.19094L53.4044 4.22154L53.416 4.25218L53.4275 4.28286L53.4391 4.31358L53.4507 4.34435L53.4623 4.37515L53.474 4.406L53.4856 4.43692L53.4973 4.46785L53.509 4.49886L53.5207 4.52986L53.5324 4.56091L53.5441 4.592L53.5558 4.62313L53.5676 4.6543L53.5793 4.68551L53.5911 4.71677L53.6029 4.74802L53.6147 4.77931L53.6265 4.81064L53.6383 4.84202L53.6502 4.87339L53.662 4.90481L53.6739 4.93626L53.6857 4.96776L53.6976 4.99926L53.7095 5.03075L53.7214 5.06229L53.7333 5.09387L53.7452 5.12545L53.7571 5.15707L53.769 5.18869L53.7809 5.22034L53.7929 5.252L53.8048 5.2837L53.8168 5.31541L53.8287 5.3471L53.8407 5.37885L53.8527 5.41059L53.8646 5.44233L53.8766 5.47411L53.8886 5.50585L53.9006 5.53763L53.9125 5.56945L53.9245 5.60124L53.9365 5.63306L53.9485 5.66484L53.9605 5.69666L53.9725 5.72849L53.9845 5.76031L53.9965 5.79213L54.0085 5.82395L54.0205 5.85578L54.0325 5.8876L54.0445 5.91942L54.0565 5.95124L54.0685 5.98307L54.0805 6.01489L54.0924 6.04667L54.1044 6.07849L54.1164 6.11028L54.1284 6.14206L54.1404 6.17384L54.1523 6.20558L54.1643 6.23736L54.1763 6.2691L54.1882 6.3008L54.2002 6.33255L54.2122 6.36424L54.2241 6.3959L54.236 6.42757L54.248 6.45922L54.2599 6.49084L54.2718 6.52246L54.2837 6.55404L54.2956 6.58562L54.3075 6.61715L54.3194 6.64869L54.3313 6.68019L54.3431 6.71164L54.355 6.7431L54.3668 6.77452L54.3787 6.80593L54.3905 6.83726L54.4023 6.8686L54.4141 6.89989L54.4259 6.93118L54.4377 6.96244L54.4494 6.99361L54.4612 7.02478L54.4729 7.05591L54.4846 7.08704L54.4963 7.11809L54.508 7.14909L54.5197 7.1801L54.5314 7.21103L54.543 7.24191L54.5547 7.2728L54.5663 7.3036L54.5779 7.33436L54.5894 7.36509L54.601 7.39577L54.6126 7.42641L54.6241 7.45701L54.6356 7.48753L54.6471 7.51801L54.6586 7.54844L54.67 7.57884L54.6815 7.6092L54.6929 7.63947L54.7043 7.6697L54.7156 7.69985L54.727 7.72997L54.7383 7.76004L54.7496 7.79003L54.7609 7.81997L54.7722 7.84988L54.7834 7.87971L54.7946 7.90945L54.8058 7.93916L54.817 7.96878L54.8282 7.99836L54.8393 8.02786L54.8504 8.05728L54.8614 8.08666L54.8725 8.11595L54.8835 8.14521L54.8945 8.17434L54.9055 8.20343L54.9164 8.23249L54.9273 8.26142L54.9382 8.2903L54.9491 8.31907L54.9599 8.3478L54.9707 8.37644L54.9815 8.40505L54.9922 8.43353L55.0029 8.46193L55.0136 8.49024L55.0242 8.51852L55.0349 8.54668L55.0454 8.57475L55.056 8.60274L55.0665 8.6307L55.077 8.65853L55.0875 8.68623L55.0979 8.7139L55.1083 8.74148L55.1186 8.76895L55.129 8.79633L55.1393 8.82363L55.1495 8.8508L55.1597 8.87794L55.1699 8.90496L55.1801 8.93185L55.1902 8.9587L55.2002 8.98539L55.2103 9.01204L55.2203 9.03856L55.2303 9.06501L55.2402 9.09133L55.2501 9.11753L55.2599 9.14365L55.2697 9.16968L55.2795 9.1956L55.2892 9.22139L55.2989 9.2471L55.3085 9.27269L55.3182 9.29819L55.3277 9.32358L55.3373 9.34884L55.3467 9.37398L55.3562 9.39904L55.3656 9.42394L55.3749 9.44879L55.3842 9.47348L55.3935 9.49805L55.4027 9.52254L55.4119 9.54687L55.421 9.57111L55.4301 9.59523L55.4392 9.61923L55.4482 9.64307L55.4571 9.66682L55.466 9.69046L55.4749 9.71397L55.4837 9.73735L55.4925 9.76058L55.5012 9.78372L55.5098 9.8067L55.5185 9.82956L55.527 9.8523L55.5356 9.87491L55.544 9.89736L55.5525 9.91973L55.5608 9.94194L55.5691 9.96398L55.5774 9.98594L55.5856 10.0077L55.5938 10.0294L55.6019 10.0509L55.61 10.0723L55.618 10.0936L55.6259 10.1147L55.6338 10.1356L55.6417 10.1564L55.6495 10.1771L55.6572 10.1977L55.6649 10.218L55.6725 10.2383L55.6801 10.2584L55.6876 10.2783L55.6951 10.2981L55.7025 10.3177L55.7098 10.3372L55.7171 10.3566L55.7244 10.3758L55.7315 10.3948L55.7387 10.4137L55.7457 10.4324L55.7527 10.4509L55.7596 10.4694L55.7665 10.4876L55.7733 10.5057L55.7801 10.5236L55.7868 10.5414L55.7934 10.559L55.8 10.5764L55.8065 10.5937L55.813 10.6108L55.8194 10.6277L55.8257 10.6445L55.8319 10.6611L55.8381 10.6776L55.8443 10.6938L55.8503 10.7099L55.8563 10.7259L55.8623 10.7416L55.8681 10.7572L55.874 10.7726L55.8797 10.7878L55.8854 10.8029L55.891 10.8177L55.8965 10.8324L55.901 10.8444C55.8679 10.8594 55.8327 10.8751 55.7954 10.8915C55.3685 11.0796 54.7212 11.339 53.8695 11.6684C52.7468 12.1026 51.2906 12.6499 49.5548 13.3024C48.6603 13.6387 47.6912 14.0029 46.6552 14.394C40.5711 16.6908 32.2137 19.8996 23.2143 23.7466L23.1921 23.7561L23.1707 23.7672C17.9659 26.4578 15.6413 30.5704 14.8983 34.6937C14.1609 38.7858 14.9805 42.871 16.0113 45.6053C17.0133 48.2636 30.9543 85.09 44.6442 121.251C51.4894 139.331 58.2718 157.246 63.3429 170.64L69.4602 186.797L71.1698 191.312L71.5425 192.297L57.5847 197.558C38.0534 144.063 11.5098 74.4602 4.27729 55.4948C3.28146 52.8835 2.65167 51.2321 2.45674 50.715C1.67895 48.6517 -0.0963833 41.5072 1.3323 33.7688C2.75179 26.0802 7.32964 17.7943 19.3 13.2816C31.5157 8.67644 39.8821 5.52262 45.1945 3.51999L50.9719 1.34219Z" fill="#FF3B1C" stroke="black"/>
</svg>
