<svg width="155" height="68" viewBox="0 0 155 68" fill="none" xmlns="http://www.w3.org/2000/svg">
<path d="M1.45982 57.9338L151.432 1.39922L154.389 9.24264L154.279 10.93L154.278 10.9491L154.278 10.9511C154.278 10.951 154.278 10.9512 154.278 10.9511C154.276 10.9611 154.273 10.985 154.264 11.0198C154.247 11.0896 154.207 11.2058 154.117 11.3471C153.944 11.6212 153.55 12.0448 152.638 12.3898C131.517 20.3779 10.1842 66.2644 9.62006 66.4771C9.56162 66.4992 9.51311 66.5188 9.47177 66.5369C9.21825 66.5516 8.57152 66.6094 6.72202 66.8732C6.11577 66.9597 5.46241 66.6246 4.75792 65.7714C4.06689 64.9345 3.44957 63.7387 2.93062 62.4775C2.41543 61.2253 2.01408 59.9508 1.74097 58.9855C1.6221 58.5653 1.528 58.2054 1.45982 57.9338Z" fill="#FF3B1C"/>
<path d="M154.278 10.9511L154.278 10.9491L154.279 10.93L154.389 9.24264L151.432 1.39922L1.45982 57.9338C1.528 58.2054 1.6221 58.5653 1.74097 58.9855C2.01408 59.9508 2.41543 61.2253 2.93062 62.4775C3.44957 63.7387 4.06689 64.9345 4.75792 65.7714C5.46241 66.6246 6.11577 66.9597 6.72202 66.8732C8.57152 66.6094 9.21825 66.5516 9.47177 66.5369C9.51312 66.5188 9.56162 66.4992 9.62006 66.4771C10.1842 66.2644 131.517 20.3779 152.638 12.3898C153.55 12.0448 153.944 11.6212 154.117 11.3471C154.207 11.2058 154.247 11.0896 154.264 11.0198C154.273 10.985 154.276 10.9611 154.278 10.9511ZM154.278 10.9511C154.278 10.9512 154.278 10.951 154.278 10.9511Z" stroke="black"/>
</svg>
