<svg width="128" height="173" viewBox="0 0 128 173" fill="none" xmlns="http://www.w3.org/2000/svg">
<path d="M1.99198 15.0777L0.812546 15.5224L0.815941 15.5314L0.82187 15.5471L0.827875 15.5631L0.833942 15.5792L0.840071 15.5954L0.846261 15.6118L0.852528 15.6285L0.858856 15.6452L0.86523 15.6622L0.871681 15.6793L0.878194 15.6965L0.884768 15.714L0.891404 15.7316L0.898101 15.7494L0.904859 15.7673L0.911663 15.7853L0.918544 15.8036L0.925487 15.822L0.932476 15.8405L0.939542 15.8593L0.946653 15.8782L0.953826 15.8972L0.96106 15.9164L0.968341 15.9357L0.975683 15.9552L0.983087 15.9748L0.990552 15.9946L0.998078 16.0146L1.00565 16.0347L1.01327 16.0549L1.02095 16.0752L1.02869 16.0958L1.03649 16.1165L1.04433 16.1373L1.05224 16.1582L1.06019 16.1793L1.0682 16.2006L1.07626 16.222L1.08437 16.2435L1.09254 16.2652L1.10076 16.287L1.10902 16.3089L1.11735 16.331L1.12572 16.3532L1.13414 16.3755L1.1426 16.3979L1.15112 16.4206L1.15969 16.4433L1.16831 16.4662L1.17697 16.4891L1.1857 16.5123L1.19445 16.5355L1.20327 16.5589L1.21213 16.5824L1.22103 16.606L1.22998 16.6298L1.23898 16.6536L1.24803 16.6776L1.25711 16.7017L1.26625 16.726L1.27543 16.7503L1.28465 16.7748L1.29392 16.7994L1.30323 16.8241L1.31259 16.8489L1.32197 16.8738L1.33142 16.8988L1.34089 16.924L1.35042 16.9492L1.35999 16.9746L1.3696 17.0001L1.37925 17.0257L1.38892 17.0514L1.39866 17.0772L1.40843 17.1031L1.41823 17.1291L1.42808 17.1553L1.43797 17.1815L1.44789 17.2078L1.45786 17.2343L1.46786 17.2608L1.47789 17.2874L1.48797 17.3141L1.49807 17.3409L1.50822 17.3679L1.51841 17.3949L1.52862 17.422L1.53887 17.4492L1.54916 17.4765L1.55948 17.5038L1.56985 17.5313L1.58023 17.5589L1.59066 17.5865L1.60111 17.6143L1.6116 17.6421L1.62213 17.67L1.63269 17.698L1.64327 17.7261L1.65388 17.7543L1.66453 17.7825L1.67522 17.8109L1.68592 17.8393L1.69666 17.8677L1.70743 17.8963L1.71823 17.9249L1.72905 17.9537L1.73991 17.9825L1.75079 18.0113L1.76171 18.0403L1.77264 18.0693L1.78361 18.0984L1.79461 18.1276L1.80562 18.1568L1.81667 18.1861L1.82774 18.2155L1.83885 18.2449L1.84997 18.2744L1.8611 18.304L1.87228 18.3336L1.88347 18.3633L1.89469 18.3931L1.90594 18.4229L1.9172 18.4528L1.92849 18.4827L1.93979 18.5127L1.95113 18.5428L1.96248 18.5729L1.97384 18.603L1.98524 18.6333L1.99665 18.6635L2.0081 18.6939L2.01954 18.7243L2.03101 18.7547L2.04252 18.7852L2.05402 18.8157L2.06556 18.8463L2.07711 18.877L2.08867 18.9077L2.10026 18.9384L2.11185 18.9691L2.12346 18.9999L2.13509 19.0308L2.14675 19.0617L2.15841 19.0926L2.1701 19.1236L2.18179 19.1547L2.19349 19.1857L2.20521 19.2168L2.21694 19.2479L2.22869 19.2791L2.24046 19.3103L2.25224 19.3416L2.26402 19.3728L2.27582 19.4041L2.28763 19.4354L2.29946 19.4668L2.31128 19.4982L2.32313 19.5296L2.33499 19.5611L2.34686 19.5925L2.35873 19.624L2.3706 19.6555L2.38249 19.6871L2.3944 19.7187L2.4063 19.7502L2.41822 19.7819L2.43014 19.8135L2.44207 19.8451L2.45401 19.8768L2.46596 19.9085L2.47791 19.9402L2.48986 19.9719L2.50182 20.0036L2.51379 20.0354L2.52575 20.0671L2.53774 20.0989L2.5497 20.1306L2.56168 20.1624L2.57368 20.1942L2.58566 20.226L2.59765 20.2578L2.60963 20.2896L2.62163 20.3215L2.63363 20.3533L2.64562 20.3851L2.65762 20.4169L2.66961 20.4487L2.68161 20.4806L2.69361 20.5124L2.7056 20.5442L2.7176 20.576L2.7296 20.6079L2.74159 20.6397L2.75357 20.6715L2.76557 20.7033L2.77755 20.7351L2.78953 20.7668L2.80151 20.7986L2.81348 20.8304L2.82546 20.8622L2.83742 20.8939L2.84937 20.9256L2.86134 20.9573L2.87329 20.989L2.88522 21.0207L2.89716 21.0524L2.90909 21.084L2.92101 21.1156L2.93293 21.1473L2.94483 21.1788L2.95674 21.2104L2.96862 21.2419L2.98051 21.2735L2.99239 21.305L3.00424 21.3364L3.0161 21.3679L3.02794 21.3993L3.03979 21.4307L3.0516 21.4621L3.06341 21.4934L3.07521 21.5247L3.087 21.556L3.09878 21.5872L3.11053 21.6184L3.12229 21.6496L3.13402 21.6807L3.14576 21.7118L3.15746 21.7429L3.16915 21.7739L3.18084 21.8049L3.1925 21.8358L3.20414 21.8667L3.21578 21.8976L3.22739 21.9284L3.23899 21.9592L3.25057 21.9899L3.26214 22.0206L3.27369 22.0512L3.28522 22.0818L3.29673 22.1123L3.30822 22.1428L3.31969 22.1732L3.33115 22.2036L3.34259 22.234L3.354 22.2643L3.3654 22.2945L3.37677 22.3246L3.38812 22.3548L3.39945 22.3848L3.41076 22.4148L3.42205 22.4448L3.43332 22.4747L3.44457 22.5045L3.45578 22.5342L3.46698 22.5639L3.47814 22.5936L3.48929 22.6231L3.50041 22.6526L3.5115 22.6821L3.52258 22.7114L3.53362 22.7407L3.54465 22.77L3.55563 22.7991L3.5666 22.8282L3.57755 22.8573L3.58846 22.8862L3.59935 22.9151L3.61019 22.9439L3.62102 22.9726L3.63182 23.0012L3.6426 23.0298L3.65334 23.0583L3.66404 23.0867L3.67472 23.115L3.68538 23.1433L3.69599 23.1715L3.70657 23.1995L3.71713 23.2275L3.72766 23.2555L3.73815 23.2833L3.7486 23.311L3.75903 23.3387L3.76943 23.3663L3.77978 23.3937L3.7901 23.4211L3.80039 23.4484L3.81064 23.4756L3.82087 23.5027L3.83105 23.5297L3.84119 23.5566L3.85131 23.5835L3.86137 23.6102L3.87142 23.6368L3.88142 23.6634L3.89138 23.6898L3.90131 23.7161L3.91118 23.7423L3.92103 23.7684L3.93084 23.7945L3.94061 23.8204L3.95034 23.8462L3.96003 23.8719L3.96967 23.8975L3.97929 23.923L3.98886 23.9484L3.99838 23.9736L4.00786 23.9988L4.0173 24.0238L4.02669 24.0487L4.03606 24.0736L4.04537 24.0983L4.05463 24.1228L4.06386 24.1473L4.07303 24.1717L4.08217 24.1959L4.09126 24.22L4.10031 24.244L4.10929 24.2679L4.11825 24.2916L4.12716 24.3152L4.13602 24.3388L4.14484 24.3621L4.15359 24.3854L4.16232 24.4085L4.17098 24.4315L4.1796 24.4544L4.18817 24.4771L4.19669 24.4997L4.20516 24.5222L4.21359 24.5445L4.22196 24.5667L4.23027 24.5888L4.23855 24.6107L4.24677 24.6325L4.25492 24.6542L4.26305 24.6757L4.27111 24.6971L4.27911 24.7183L4.28707 24.7395L4.29496 24.7604L4.30281 24.7812L4.31062 24.8019L4.31836 24.8225L4.32604 24.8428L4.33367 24.8631L4.34124 24.8832L4.34875 24.9031L4.35622 24.9229L4.36362 24.9425L4.37097 24.962L4.37826 24.9814L4.3855 25.0006L4.39267 25.0196L4.39978 25.0384L4.40683 25.0571L4.41383 25.0757L4.42078 25.0941L4.42766 25.1124L4.43446 25.1304L4.44122 25.1484L4.44792 25.1661L4.45455 25.1837L4.46113 25.2012L4.46764 25.2185L4.47409 25.2356L4.48048 25.2525L4.48681 25.2693L4.49306 25.2859L4.49927 25.3024L4.50539 25.3186L4.51146 25.3347L4.51747 25.3506L4.5234 25.3664L4.52928 25.382L4.53509 25.3974L4.54081 25.4126L4.5465 25.4276L4.5521 25.4425L4.55763 25.4572L4.56217 25.4692C4.59695 25.4586 4.63378 25.4471 4.67262 25.4349C5.11741 25.2943 5.77485 25.0619 6.6321 24.747C7.76198 24.3321 9.21716 23.782 10.9518 23.1262C11.8457 22.7883 12.814 22.4222 13.8504 22.0321C19.9366 19.741 28.3325 16.6345 37.6321 13.5833L37.655 13.5758L37.6784 13.57C43.364 12.1553 47.8249 13.71 51.1052 16.3166C54.3605 18.9037 56.4415 22.5133 57.4722 25.2477C58.4743 27.9059 72.3124 64.7711 85.8999 100.97C92.6935 119.07 99.425 137.004 104.458 150.413L110.528 166.587L112.225 171.108L112.594 172.093L126.552 166.832C105.91 113.755 79.9012 43.9507 72.8144 24.9303C71.8388 22.3114 71.2215 20.6552 71.0266 20.1381C70.2488 18.0748 66.866 11.5363 60.6848 6.66662C54.5431 1.82834 45.6346 -1.37365 33.6639 3.13862C21.4481 7.74333 13.0818 10.8972 7.76934 12.8998L1.99198 15.0777Z" fill="#FF3B1C" stroke="black"/>
</svg>
